<?xml version="1.0" encoding="UTF-8" standalone="no"?>
<!DOCTYPE svg PUBLIC "-//W3C//DTD SVG 1.1//EN" "http://www.w3.org/Graphics/SVG/1.1/DTD/svg11.dtd">
<svg width="100%" height="100%" viewBox="0 0 60 60" version="1.1" xmlns="http://www.w3.org/2000/svg" xmlns:xlink="http://www.w3.org/1999/xlink" xml:space="preserve" style="fill-rule:evenodd;clip-rule:evenodd;stroke-linejoin:round;stroke-miterlimit:1.41421;">
    <g transform="matrix(1,0,0,1,-221.443,-270.21)">
        <g transform="matrix(0.5,0,0,0.5,110.722,135.105)">
            <g>
                <path d="M323.896,270.21C333.581,270.21 341.443,278.073 341.443,287.757L341.443,372.663C341.443,382.347 333.581,390.21 323.896,390.21L238.991,390.21C229.306,390.21 221.443,382.347 221.443,372.663L221.443,287.757C221.443,278.073 229.306,270.21 238.991,270.21L323.896,270.21ZM277.13,352.982C277.373,354.549 277.756,355.96 278.298,357.182C280.695,362.372 285.801,365.528 295.179,365.528C301.743,365.528 307.995,363.492 312.997,359.726C320.499,360.642 330.606,360.031 337.796,346.393C338.421,345.273 333.941,342.525 333.315,343.95C329.46,351.787 324.042,354.332 318.623,354.332C327.168,343.339 327.793,325.425 313.83,322.27C308.829,321.151 302.785,322.27 298.409,324.815C301.535,314.433 303.306,308.021 306.745,298.148C305.703,294.993 294.241,293.568 289.969,295.705C286.375,305.624 278.332,327.842 276.988,343.875C276.972,343.899 276.957,343.924 276.944,343.95C271.525,354.026 262.252,356.469 256.312,356.367C248.81,356.265 244.538,353.924 244.017,348.53C255.791,350.26 265.378,346.698 268.921,339.471C273.297,331.431 268.816,321.66 255.27,321.456C240.162,321.252 228.491,330.82 227.137,344.968C226.095,355.757 232.659,365.629 250.686,365.731C261.195,365.815 269.853,362.352 277.13,352.982C276.719,350.333 276.706,347.24 276.988,343.875C277.833,342.629 282.04,345.392 281.529,346.291C280.12,348.795 278.656,351.018 277.13,352.982ZM294.866,356.367C288.093,354.637 292.053,342.932 295.595,334.179C299.034,331.329 302.368,330.107 304.556,330.413C310.496,331.227 307.787,341.609 305.494,347.105C302.056,347.207 299.763,351.278 301.222,354.23C299.659,355.858 297.888,357.182 294.866,356.367ZM253.812,331.125C255.375,331.329 255.791,332.957 255.166,334.993C254.229,338.25 250.582,342.22 244.538,342.016C246.101,335.4 250.061,330.616 253.812,331.125Z" style="fill:rgb(242,242,242);"/>
            </g>
        </g>
    </g>
</svg>
