<?xml version="1.0" standalone="no"?>
<!DOCTYPE svg PUBLIC "-//W3C//DTD SVG 20010904//EN"
 "http://www.w3.org/TR/2001/REC-SVG-20010904/DTD/svg10.dtd">
<svg version="1.0" xmlns="http://www.w3.org/2000/svg"
 width="260.000000pt" height="260.000000pt" viewBox="0 0 260.000000 260.000000"
 preserveAspectRatio="xMidYMid meet">
<metadata>
Created by potrace 1.11, written by Peter Selinger 2001-2013
</metadata>
<g transform="translate(0.000000,260.000000) scale(0.100000,-0.100000)"
fill="#000000" stroke="none">
<path d="M265 2580 c-76 -25 -150 -81 -197 -150 -71 -104 -68 -64 -68 -1143
l1 -968 23 -64 c42 -116 141 -208 256 -239 82 -22 1957 -22 2040 0 115 30 223
133 260 249 18 57 19 101 19 1025 0 612 -3 981 -10 1009 -23 100 -93 197 -180
249 -85 51 -73 51 -1114 51 -929 0 -973 -1 -1030 -19z m1497 -530 c21 -6 49
-21 62 -33 l25 -22 -35 -105 c-52 -160 -144 -463 -141 -466 1 -1 22 5 47 15
88 35 110 39 202 37 79 -2 101 -7 148 -30 172 -86 214 -291 111 -538 -18 -43
-37 -80 -42 -84 -5 -3 -14 -15 -20 -26 -11 -20 -10 -21 35 -15 98 14 201 88
248 180 10 21 25 40 33 43 17 7 74 -22 81 -41 9 -22 -64 -131 -124 -186 -30
-28 -76 -60 -101 -73 -41 -20 -62 -28 -121 -43 -8 -2 -56 -5 -106 -6 -79 -2
-96 -5 -130 -28 -146 -97 -398 -121 -557 -54 -76 32 -144 113 -162 194 l-7 33
-66 -66 c-110 -108 -205 -161 -342 -189 -227 -47 -473 10 -585 135 -164 183
-101 518 131 689 110 81 236 117 394 114 153 -3 247 -51 296 -151 49 -101 21
-226 -73 -318 -83 -83 -199 -120 -365 -119 -118 1 -118 1 -90 -57 32 -65 110
-100 236 -105 84 -3 158 14 243 56 66 32 162 119 188 170 9 16 19 29 23 29 4
0 6 -38 6 -85 -1 -47 2 -85 5 -85 9 0 41 44 71 98 l24 43 -29 24 c-17 13 -40
24 -53 25 -17 0 -22 5 -18 18 2 9 8 42 11 72 20 156 82 391 187 707 l81 242
36 10 c42 12 190 7 243 -9z"/>
<path d="M1722 1280 c-96 -34 -114 -55 -160 -193 -46 -135 -58 -217 -42 -275
13 -51 40 -73 94 -79 38 -5 51 -1 79 20 28 21 33 31 29 56 -7 48 15 88 59 108
31 15 41 27 59 73 26 71 38 138 35 198 -5 98 -53 127 -153 92z"/>
<path d="M635 1261 c-46 -29 -72 -61 -105 -133 -16 -37 -30 -70 -30 -73 0 -3
17 -5 37 -5 78 0 171 71 192 145 21 76 -26 109 -94 66z"/>
</g>
</svg>
